<svg width="14" height="15" viewBox="0 0 14 15" fill="none" xmlns="http://www.w3.org/2000/svg">
<path fill-rule="evenodd" clip-rule="evenodd" d="M12.1583 6.70873C12.4527 6.64543 12.5621 6.6863 12.586 6.6978C12.5959 6.71833 12.6182 6.78567 12.6027 6.94453C12.5803 7.17517 12.4834 7.50153 12.2857 7.91003C11.8933 8.72103 11.1695 9.72103 10.1953 10.6953C9.22103 11.6695 8.22107 12.3933 7.41003 12.7857C7.00153 12.9834 6.67517 13.0802 6.44453 13.1027C6.2857 13.1182 6.21837 13.0958 6.1978 13.086C6.1863 13.0621 6.14543 12.9527 6.20873 12.6583C6.2854 12.3018 6.48963 11.8219 6.8346 11.2606C7.2525 10.5806 7.8499 9.8248 8.58737 9.08733C9.3248 8.3499 10.0806 7.75247 10.7606 7.33457C11.3219 6.98963 11.8018 6.7854 12.1583 6.70873V6.70873ZM0.47063 9.24677L5.25323 14.0294C5.6271 14.4032 6.13423 14.4726 6.5739 14.4298C7.0195 14.3863 7.50493 14.221 7.99077 13.986C8.9684 13.5129 10.0873 12.6889 11.1381 11.6381C12.1889 10.5873 13.0129 9.4684 13.486 8.49077C13.721 8.00493 13.8863 7.5195 13.9298 7.0739C13.9726 6.63423 13.9032 6.1271 13.5294 5.75323L8.74677 0.970623C8.28423 0.508093 7.6255 0.508577 7.09537 0.622587C6.53603 0.742877 5.91113 1.02806 5.27987 1.416C4.49927 1.89572 3.6627 2.56118 2.86193 3.36193C2.06118 4.16267 1.39572 4.99927 0.916007 5.77987C0.52807 6.41113 0.242883 7.03603 0.122593 7.59537C0.00857995 8.1255 0.00809672 8.78423 0.47063 9.24677V9.24677Z" fill="#141C24"/>
</svg>
