<svg width="18" height="17" viewBox="0 0 18 17" fill="none" xmlns="http://www.w3.org/2000/svg">
<path fill-rule="evenodd" clip-rule="evenodd" d="M9 0.375C4.51269 0.375 0.875 4.01269 0.875 8.5C0.875 12.9873 4.51269 16.625 9 16.625C13.4873 16.625 17.125 12.9873 17.125 8.5C17.1203 4.01465 13.4854 0.379737 9 0.375V0.375ZM6.93984 11.625H11.0602C10.6406 13.0578 9.9375 14.3492 9 15.3664C8.0625 14.3492 7.35937 13.0578 6.93984 11.625V11.625ZM6.65625 10.375C6.44896 9.13359 6.44896 7.86641 6.65625 6.625H11.3438C11.551 7.86641 11.551 9.13359 11.3438 10.375H6.65625ZM2.125 8.5C2.12446 7.86597 2.21201 7.23493 2.38516 6.625H5.38984C5.20339 7.86805 5.20339 9.13195 5.38984 10.375H2.38516C2.21201 9.76507 2.12446 9.13403 2.125 8.5V8.5ZM11.0602 5.375H6.93984C7.35937 3.94219 8.0625 2.65078 9 1.63359C9.9375 2.65078 10.6406 3.94219 11.0602 5.375V5.375ZM12.6102 6.625H15.6148C15.9617 7.85093 15.9617 9.14907 15.6148 10.375H12.6102C12.7966 9.13195 12.7966 7.86805 12.6102 6.625V6.625ZM15.1227 5.375H12.3547C12.0357 4.11993 11.5001 2.93019 10.7719 1.85938C12.6532 2.36494 14.2333 3.64178 15.1227 5.375V5.375ZM7.22812 1.85938C6.49992 2.93019 5.96427 4.11993 5.64531 5.375H2.87734C3.76666 3.64178 5.34682 2.36494 7.22812 1.85938V1.85938ZM2.87734 11.625H5.64531C5.96427 12.8801 6.49992 14.0698 7.22812 15.1406C5.34682 14.6351 3.76666 13.3582 2.87734 11.625V11.625ZM10.7719 15.1406C11.5001 14.0698 12.0357 12.8801 12.3547 11.625H15.1227C14.2333 13.3582 12.6532 14.6351 10.7719 15.1406V15.1406Z" fill="#141C24"/>
</svg>
