<svg width="14" height="8" viewBox="0 0 14 8" fill="none" xmlns="http://www.w3.org/2000/svg">
<path fill-rule="evenodd" clip-rule="evenodd" d="M13.6922 7.44219C13.575 7.55955 13.4159 7.62549 13.25 7.62549C13.0841 7.62549 12.925 7.55955 12.8078 7.44219L7 1.63359L1.19219 7.44219C0.947974 7.6864 0.552026 7.6864 0.307812 7.44219C0.063599 7.19797 0.0635991 6.80203 0.307812 6.55781L6.55781 0.307813C6.67504 0.190452 6.83412 0.124508 7 0.124508C7.16588 0.124508 7.32496 0.190452 7.44219 0.307813L13.6922 6.55781C13.8095 6.67504 13.8755 6.83412 13.8755 7C13.8755 7.16588 13.8095 7.32496 13.6922 7.44219V7.44219Z" fill="#141C24"/>
</svg>
