<svg width="21" height="19" viewBox="0 0 21 19" fill="none" xmlns="http://www.w3.org/2000/svg">
<path fill-rule="evenodd" clip-rule="evenodd" d="M20.1928 3.46313C20.0768 3.18285 19.8033 3.00006 19.5 3H16.6472C15.8359 1.61972 14.3604 0.765791 12.7594 0.75C11.5747 0.734462 10.4339 1.19754 9.59531 2.03438C8.73219 2.88138 8.24717 4.04071 8.25 5.25V5.82094C4.47563 4.82531 1.38844 1.755 1.35563 1.72219C1.15019 1.51493 0.843182 1.44566 0.568648 1.54461C0.294115 1.64356 0.101905 1.89277 0.0759375 2.18344C-0.328125 6.66375 0.973125 9.66187 2.13844 11.3878C2.70664 12.241 3.39786 13.0055 4.18969 13.6566C2.76188 15.3 0.51375 16.1634 0.489375 16.1728C0.274975 16.2531 0.108995 16.4269 0.0386822 16.6448C-0.031631 16.8627 0.00142384 17.1008 0.128438 17.2913C0.19875 17.3962 0.48 17.7647 1.16719 18.1087C2.01656 18.5344 3.13875 18.75 4.5 18.75C11.1253 18.75 16.6612 13.6481 17.2266 7.08375L20.0306 4.28062C20.2451 4.06601 20.3091 3.74335 20.1928 3.46313ZM15.9741 6.22031C15.8455 6.34921 15.7682 6.52049 15.7566 6.70219C15.375 12.6169 10.4325 17.25 4.5 17.25C3.51 17.25 2.8125 17.1187 2.32312 16.9613C3.40219 16.3753 4.90688 15.3675 5.87438 13.9163C5.98915 13.7438 6.02746 13.5315 5.98023 13.3298C5.93299 13.128 5.80442 12.9548 5.625 12.8512C5.58094 12.8259 1.50844 10.3819 1.5 3.85125C3 5.07 5.74219 6.96094 8.87531 7.48781C9.09265 7.52446 9.3151 7.46364 9.48358 7.32154C9.65205 7.17943 9.74949 6.9704 9.75 6.75V5.25C9.7483 4.44176 10.0728 3.66702 10.65 3.10125C11.2034 2.54686 11.9574 2.23983 12.7406 2.25C13.9275 2.265 15.0366 2.98875 15.5006 4.05094C15.6202 4.32382 15.8899 4.50008 16.1878 4.5H17.6878L15.9741 6.22031Z" fill="#A1824A"/>
</svg>
