<svg width="18" height="20" viewBox="0 0 18 20" fill="none" xmlns="http://www.w3.org/2000/svg">
<path fill-rule="evenodd" clip-rule="evenodd" d="M16.5 2H14.25V1.25C14.25 0.835786 13.9142 0.5 13.5 0.5C13.0858 0.5 12.75 0.835786 12.75 1.25V2H5.25V1.25C5.25 0.835786 4.91421 0.5 4.5 0.5C4.08579 0.5 3.75 0.835786 3.75 1.25V2H1.5C0.671573 2 0 2.67157 0 3.5V18.5C0 19.3284 0.671573 20 1.5 20H16.5C17.3284 20 18 19.3284 18 18.5V3.5C18 2.67157 17.3284 2 16.5 2ZM3.75 3.5V4.25C3.75 4.66421 4.08579 5 4.5 5C4.91421 5 5.25 4.66421 5.25 4.25V3.5H12.75V4.25C12.75 4.66421 13.0858 5 13.5 5C13.9142 5 14.25 4.66421 14.25 4.25V3.5H16.5V6.5H1.5V3.5H3.75ZM16.5 18.5H1.5V8H16.5V18.5ZM7.5 10.25V16.25C7.5 16.6642 7.16421 17 6.75 17C6.33579 17 6 16.6642 6 16.25V11.4631L5.58562 11.6713C5.2149 11.8566 4.76411 11.7063 4.57875 11.3356C4.39339 10.9649 4.54365 10.5141 4.91437 10.3287L6.41438 9.57875C6.64695 9.46237 6.92322 9.47478 7.14442 9.61155C7.36563 9.74832 7.50019 9.98993 7.5 10.25ZM13.0462 13.1047L11.25 15.5H12.75C13.1642 15.5 13.5 15.8358 13.5 16.25C13.5 16.6642 13.1642 17 12.75 17H9.75C9.46592 17 9.20622 16.8395 9.07918 16.5854C8.95214 16.3313 8.97955 16.0273 9.15 15.8L11.8481 12.2028C12.0153 11.9802 12.0455 11.6833 11.9264 11.4316C11.8073 11.1799 11.5586 11.0149 11.2804 11.003C11.0023 10.9912 10.7404 11.1344 10.6003 11.375C10.4702 11.6146 10.2203 11.7647 9.94765 11.7671C9.675 11.7694 9.42256 11.6236 9.28836 11.3863C9.15415 11.1489 9.15933 10.8574 9.30188 10.625C9.81124 9.74353 10.849 9.31391 11.8324 9.57743C12.8158 9.84095 13.4997 10.7319 13.5 11.75C13.5016 12.2391 13.3421 12.7152 13.0462 13.1047Z" fill="#1C170D"/>
</svg>
