<svg width="21" height="21" viewBox="0 0 21 21" fill="none" xmlns="http://www.w3.org/2000/svg">
<path fill-rule="evenodd" clip-rule="evenodd" d="M19.89 18.9694L15.1959 14.2762C18.0223 10.883 17.6798 5.86693 14.4185 2.88935C11.1572 -0.0882368 6.13072 0.0259986 3.00805 3.14867C-0.114626 6.27134 -0.228862 11.2978 2.74872 14.5591C5.72631 17.8204 10.7424 18.1629 14.1356 15.3366L18.8288 20.0306C19.1218 20.3237 19.5969 20.3237 19.89 20.0306C20.1831 19.7376 20.1831 19.2624 19.89 18.9694ZM2.10938 9C2.10938 5.27208 5.13145 2.25 8.85938 2.25C12.5873 2.25 15.6094 5.27208 15.6094 9C15.6094 12.7279 12.5873 15.75 8.85938 15.75C5.13317 15.7459 2.11351 12.7262 2.10938 9Z" fill="#A1824A"/>
</svg>
