<svg width="20" height="20" viewBox="0 0 20 20" fill="none" xmlns="http://www.w3.org/2000/svg">
<path fill-rule="evenodd" clip-rule="evenodd" d="M10 0.25C4.61522 0.25 0.25 4.61522 0.25 10C0.25 15.3848 4.61522 19.75 10 19.75C15.3848 19.75 19.75 15.3848 19.75 10C19.7443 4.61758 15.3824 0.255684 10 0.25ZM10.75 18.2153V12.25H13C13.4142 12.25 13.75 11.9142 13.75 11.5C13.75 11.0858 13.4142 10.75 13 10.75H10.75V8.5C10.75 7.67157 11.4216 7 12.25 7H13.75C14.1642 7 14.5 6.66421 14.5 6.25C14.5 5.83579 14.1642 5.5 13.75 5.5H12.25C10.5931 5.5 9.25 6.84315 9.25 8.5V10.75H7C6.58579 10.75 6.25 11.0858 6.25 11.5C6.25 11.9142 6.58579 12.25 7 12.25H9.25V18.2153C4.85788 17.8144 1.55787 14.0299 1.75854 9.62409C1.95922 5.21827 5.58962 1.74947 10 1.74947C14.4104 1.74947 18.0408 5.21827 18.2415 9.62409C18.4421 14.0299 15.1421 17.8144 10.75 18.2153Z" fill="#A1824A"/>
</svg>
