<svg width="18" height="15" viewBox="0 0 18 15" fill="none" xmlns="http://www.w3.org/2000/svg">
<path fill-rule="evenodd" clip-rule="evenodd" d="M15.875 0.625H2.125C1.43464 0.625 0.875 1.18464 0.875 1.875V13.125C0.875 13.8154 1.43464 14.375 2.125 14.375H15.875C16.5654 14.375 17.125 13.8154 17.125 13.125V1.875C17.125 1.18464 16.5654 0.625 15.875 0.625V0.625ZM15.875 13.125H2.125V1.875H15.875V13.125V13.125ZM12.75 4.375C12.75 6.44607 11.0711 8.125 9 8.125C6.92893 8.125 5.25 6.44607 5.25 4.375C5.25 4.02982 5.52982 3.75 5.875 3.75C6.22018 3.75 6.5 4.02982 6.5 4.375C6.5 5.75571 7.61929 6.875 9 6.875C10.3807 6.875 11.5 5.75571 11.5 4.375C11.5 4.02982 11.7798 3.75 12.125 3.75C12.4702 3.75 12.75 4.02982 12.75 4.375V4.375Z" fill="#0D1C0D"/>
</svg>
