<svg width="14" height="15" viewBox="0 0 14 15" fill="none" xmlns="http://www.w3.org/2000/svg">
<path fill-rule="evenodd" clip-rule="evenodd" d="M13.6667 3.25757C13.6667 4.1703 12.2795 4.96523 10.23 5.3788C12.2795 5.79233 13.6667 6.58727 13.6667 7.5C13.6667 8.41273 12.2795 9.20767 10.23 9.6212C12.2795 10.0348 13.6667 10.8297 13.6667 11.7424C13.6667 13.0813 10.6819 14.1667 7 14.1667C3.3181 14.1667 0.333333 13.0813 0.333333 11.7424C0.333333 10.8297 1.72048 10.0348 3.77 9.6212C1.72048 9.20767 0.333333 8.41273 0.333333 7.5C0.333333 6.58727 1.72048 5.79233 3.77 5.3788C1.72048 4.96523 0.333333 4.1703 0.333333 3.25757C0.333333 1.9187 3.3181 0.833333 7 0.833333C10.6819 0.833333 13.6667 1.9187 13.6667 3.25757V3.25757Z" fill="#0D1C0D"/>
</svg>
